<svg width="26" height="26" viewBox="0 0 26 26" fill="none" xmlns="http://www.w3.org/2000/svg">
<path d="M13.033 26C12.623 26 12.2764 25.7031 12.1771 25.3053C11.8606 24.0374 11.2547 22.689 10.3594 21.2605C9.29861 19.5451 7.78645 17.954 5.82292 16.487C4.11514 15.1962 2.40735 14.316 0.699579 13.8464C0.295107 13.7353 0 13.3766 0 12.9571C0 12.5459 0.283755 12.1913 0.679215 12.0784C2.35359 11.6004 3.96659 10.8242 5.51823 9.75C7.30122 8.50868 8.79079 7.01909 9.98698 5.28125C11.0452 3.73314 11.7716 2.20204 12.1662 0.687969C12.2696 0.291323 12.6188 0 13.0287 0C13.4432 0 13.7948 0.297775 13.8957 0.699829C14.1235 1.6075 14.4794 2.53656 14.9635 3.48698C15.573 4.66059 16.3515 5.78906 17.2995 6.8724C18.2699 7.93316 19.3534 8.89236 20.5495 9.75C22.1126 10.858 23.7016 11.6364 25.3167 12.0853C25.713 12.1954 26 12.5482 26 12.9594C26 13.3767 25.7042 13.7324 25.3018 13.8428C24.278 14.1235 23.2242 14.5761 22.1407 15.2005C20.8316 15.9679 19.6128 16.8819 18.4843 17.9427C17.3559 18.9809 16.4306 20.0755 15.7083 21.2265C14.8113 22.6581 14.2047 24.0168 13.8888 25.3031C13.7908 25.702 13.4437 26 13.033 26Z" fill="#283952"/>
</svg>
